<svg width="240" height="20" viewBox="0 0 240 20" fill="none" xmlns="http://www.w3.org/2000/svg">
<g clip-path="url(#clip0_36_127)">
<path d="M129.504 13.5579C129.005 14.2314 128.417 14.6999 127.771 14.9927C127.124 15.2855 126.419 15.4319 125.656 15.4319C124.892 15.4319 124.128 15.2855 123.481 15.022C122.835 14.7584 122.248 14.3778 121.777 13.9092C121.307 13.4407 120.955 12.8551 120.69 12.1816C120.426 11.5081 120.279 10.776 120.279 9.98538C120.279 9.19475 120.426 8.46268 120.69 7.81847C120.955 7.14497 121.307 6.5886 121.777 6.09079C122.248 5.62227 122.806 5.2416 123.481 4.94877C124.128 4.68523 124.862 4.53882 125.656 4.53882C126.449 4.53882 127.007 4.65595 127.624 4.91949C128.241 5.15375 128.77 5.59299 129.24 6.17864L128.447 6.82286C128.123 6.32506 127.712 5.97366 127.213 5.76869C126.713 5.53443 126.184 5.44658 125.656 5.44658C125.127 5.44658 124.363 5.56371 123.834 5.79797C123.305 6.03223 122.835 6.35434 122.453 6.76429C122.071 7.17425 121.777 7.64277 121.572 8.19914C121.366 8.75551 121.278 9.34116 121.278 9.98538C121.278 10.6296 121.366 11.2152 121.572 11.7716C121.777 12.328 122.071 12.7965 122.453 13.2065C122.835 13.6164 123.305 13.9385 123.834 14.1728C124.392 14.407 124.98 14.5242 125.656 14.5242C126.331 14.5242 126.184 14.4949 126.478 14.4363C126.772 14.3778 127.036 14.2606 127.301 14.1435C127.565 13.9971 127.83 13.8507 128.065 13.6457C128.3 13.4407 128.535 13.2065 128.711 12.9136L129.504 13.4993V13.5579Z" fill="white"/>
<path d="M130.65 11.801C130.65 11.2739 130.738 10.8054 130.914 10.3662C131.091 9.92692 131.326 9.54625 131.649 9.25342C131.972 8.93131 132.325 8.69705 132.765 8.52136C133.206 8.34566 133.676 8.25781 134.205 8.25781C134.734 8.25781 135.204 8.34566 135.645 8.52136C136.085 8.69705 136.467 8.93131 136.761 9.25342C137.084 9.57553 137.319 9.9562 137.495 10.3662C137.672 10.8054 137.76 11.2739 137.76 11.801C137.76 12.3281 137.672 12.7966 137.495 13.2359C137.319 13.6751 137.084 14.0558 136.761 14.3486C136.438 14.6414 136.056 14.905 135.645 15.0807C135.204 15.2563 134.734 15.3442 134.205 15.3442C133.676 15.3442 133.206 15.2563 132.765 15.0807C132.325 14.905 131.943 14.6707 131.649 14.3486C131.326 14.0265 131.091 13.6458 130.914 13.2359C130.738 12.7966 130.65 12.3281 130.65 11.801ZM131.531 11.801C131.531 12.1817 131.59 12.5331 131.708 12.8845C131.825 13.2066 132.001 13.4994 132.236 13.7629C132.472 13.9972 132.765 14.2022 133.088 14.3486C133.412 14.495 133.794 14.5828 134.205 14.5828C134.616 14.5828 134.998 14.5243 135.321 14.3486C135.644 14.2022 135.938 13.9972 136.173 13.7629C136.408 13.4994 136.585 13.2359 136.702 12.8845C136.82 12.5624 136.878 12.1817 136.878 11.801C136.878 11.4203 136.82 11.0689 136.702 10.7175C136.585 10.3954 136.408 10.1026 136.173 9.83907C135.938 9.60481 135.644 9.39983 135.321 9.25342C134.998 9.10701 134.616 9.01916 134.205 9.01916C133.794 9.01916 133.412 9.07772 133.088 9.25342C132.765 9.39983 132.472 9.60481 132.236 9.83907C132.001 10.1026 131.825 10.3662 131.708 10.7175C131.59 11.0397 131.531 11.4203 131.531 11.801Z" fill="white"/>
<path d="M139.758 10.3076C139.758 10.1904 139.758 10.0147 139.758 9.83904C139.758 9.66335 139.758 9.48765 139.758 9.28267C139.758 9.10698 139.758 8.93128 139.758 8.75559C139.758 8.57989 139.758 8.46276 139.758 8.37491H140.639C140.639 8.63846 140.639 8.87272 140.639 9.10698C140.639 9.34124 140.639 9.48765 140.668 9.54622C140.903 9.13626 141.168 8.81415 141.52 8.57989C141.873 8.31635 142.314 8.19922 142.813 8.19922C143.312 8.19922 142.989 8.19922 143.077 8.19922C143.166 8.19922 143.254 8.2285 143.342 8.25778L143.254 9.10698C143.136 9.0777 143.019 9.04841 142.901 9.04841C142.519 9.04841 142.196 9.10698 141.902 9.22411C141.638 9.34124 141.403 9.51693 141.227 9.72191C141.05 9.92689 140.903 10.1904 140.815 10.4833C140.727 10.7761 140.668 11.0689 140.668 11.4203V15.1099H139.787V10.249L139.758 10.3076Z" fill="white"/>
<path d="M144.458 8.4042H145.34V9.5755H145.369C145.516 9.34124 145.663 9.13626 145.869 8.96057C146.074 8.78487 146.309 8.63846 146.544 8.55061C146.779 8.43348 147.044 8.34563 147.308 8.28707C147.573 8.2285 147.837 8.19922 148.072 8.19922C148.601 8.19922 149.071 8.28707 149.512 8.46276C149.952 8.63846 150.334 8.87272 150.628 9.19483C150.951 9.51693 151.186 9.89761 151.362 10.3076C151.539 10.7468 151.627 11.2153 151.627 11.7424C151.627 12.2695 151.539 12.738 151.362 13.1773C151.186 13.6165 150.951 13.9972 150.628 14.29C150.305 14.6121 149.923 14.8464 149.512 15.0221C149.071 15.1978 148.601 15.2856 148.072 15.2856C147.543 15.2856 147.573 15.2856 147.308 15.1978C147.044 15.1392 146.779 15.0513 146.544 14.9635C146.309 14.8464 146.074 14.7 145.869 14.5535C145.663 14.3778 145.487 14.1729 145.369 13.9386H145.34V18.4481H144.458V8.4042ZM145.252 11.801C145.252 12.1816 145.31 12.533 145.457 12.8844C145.604 13.2358 145.81 13.4994 146.045 13.7629C146.309 13.9972 146.603 14.2021 146.926 14.3486C147.249 14.495 147.631 14.5828 148.043 14.5828C148.454 14.5828 148.836 14.5243 149.159 14.3486C149.482 14.2021 149.776 13.9972 150.011 13.7629C150.246 13.4994 150.422 13.2358 150.54 12.8844C150.657 12.5623 150.716 12.1816 150.716 11.801C150.716 11.4203 150.657 11.0689 150.54 10.7175C150.422 10.3954 150.246 10.1026 150.011 9.83904C149.776 9.60478 149.482 9.3998 149.159 9.25339C148.836 9.10698 148.454 9.01913 148.043 9.01913C147.631 9.01913 147.279 9.0777 146.926 9.25339C146.574 9.3998 146.28 9.60478 146.045 9.83904C145.78 10.1026 145.604 10.3661 145.457 10.7175C145.31 11.0689 145.252 11.4203 145.252 11.801Z" fill="white"/>
<path d="M153.243 11.801C153.243 11.2739 153.331 10.8054 153.507 10.3662C153.683 9.92692 153.918 9.54625 154.242 9.25342C154.565 8.93131 154.917 8.69705 155.358 8.52136C155.799 8.34566 156.269 8.25781 156.798 8.25781C157.326 8.25781 157.797 8.34566 158.237 8.52136C158.678 8.69705 159.06 8.93131 159.354 9.25342C159.677 9.57553 159.912 9.9562 160.088 10.3662C160.264 10.8054 160.353 11.2739 160.353 11.801C160.353 12.3281 160.264 12.7966 160.088 13.2359C159.912 13.6751 159.677 14.0558 159.354 14.3486C159.03 14.6707 158.649 14.905 158.237 15.0807C157.797 15.2563 157.326 15.3442 156.798 15.3442C156.269 15.3442 155.799 15.2563 155.358 15.0807C154.917 14.905 154.535 14.6707 154.242 14.3486C153.918 14.0265 153.683 13.6458 153.507 13.2359C153.331 12.7966 153.243 12.3281 153.243 11.801ZM154.124 11.801C154.124 12.1817 154.183 12.5331 154.3 12.8845C154.418 13.2066 154.594 13.4994 154.829 13.7629C155.064 13.9972 155.358 14.2022 155.681 14.3486C156.004 14.495 156.386 14.5828 156.798 14.5828C157.209 14.5828 157.591 14.5243 157.914 14.3486C158.237 14.2022 158.531 13.9972 158.766 13.7629C159.001 13.4994 159.177 13.2359 159.295 12.8845C159.412 12.5624 159.471 12.1817 159.471 11.801C159.471 11.4203 159.412 11.0689 159.295 10.7175C159.177 10.3954 159.001 10.1026 158.766 9.83907C158.531 9.60481 158.237 9.39983 157.914 9.25342C157.591 9.10701 157.209 9.01916 156.798 9.01916C156.386 9.01916 156.004 9.07772 155.681 9.25342C155.358 9.39983 155.064 9.60481 154.829 9.83907C154.594 10.1026 154.418 10.3662 154.3 10.7175C154.183 11.0397 154.124 11.4203 154.124 11.801Z" fill="white"/>
<path d="M162.35 10.3076C162.35 10.1904 162.35 10.0147 162.35 9.83904C162.35 9.66335 162.35 9.48765 162.35 9.28267C162.35 9.10698 162.35 8.93128 162.35 8.75559C162.35 8.57989 162.35 8.46276 162.35 8.37491H163.232C163.232 8.63846 163.232 8.87272 163.232 9.10698C163.232 9.34124 163.232 9.48765 163.261 9.54622C163.496 9.13626 163.761 8.81415 164.142 8.57989C164.495 8.31635 164.936 8.19922 165.435 8.19922C165.935 8.19922 165.611 8.19922 165.7 8.19922C165.788 8.19922 165.876 8.2285 165.964 8.25778L165.876 9.10698C165.758 9.0777 165.641 9.04841 165.523 9.04841C165.141 9.04841 164.818 9.10698 164.524 9.22411C164.231 9.34124 164.025 9.51693 163.849 9.72191C163.672 9.92689 163.526 10.1904 163.437 10.4833C163.349 10.7761 163.32 11.0689 163.32 11.4203V15.1099H162.438V10.249L162.35 10.3076Z" fill="white"/>
<path d="M172.516 12.3281C172.516 12.6502 172.516 12.943 172.516 13.2066C172.516 13.4701 172.516 13.7044 172.516 13.9386C172.516 14.1729 172.516 14.3779 172.545 14.5536C172.545 14.7585 172.574 14.9342 172.604 15.1392H171.781C171.722 14.8171 171.693 14.4364 171.693 14.0558H171.664C171.399 14.495 171.105 14.8171 170.723 15.0221C170.341 15.2271 169.871 15.3149 169.284 15.3149C168.696 15.3149 168.696 15.2856 168.432 15.1978C168.138 15.1392 167.903 15.0221 167.668 14.8464C167.433 14.6707 167.257 14.4657 167.11 14.2315C166.963 13.9679 166.904 13.6751 166.904 13.3237C166.904 12.7966 167.051 12.3867 167.286 12.0938C167.55 11.801 167.874 11.5667 168.256 11.4203C168.638 11.2739 169.049 11.1568 169.49 11.1275C169.93 11.0982 170.312 11.0689 170.635 11.0689H171.664V10.659C171.664 10.0733 171.487 9.66338 171.135 9.39983C170.782 9.13629 170.312 9.01916 169.783 9.01916C168.99 9.01916 168.314 9.2827 167.727 9.78051L167.227 9.19485C167.55 8.87275 167.962 8.63849 168.432 8.49207C168.902 8.31638 169.372 8.25781 169.813 8.25781C170.635 8.25781 171.282 8.46279 171.781 8.84346C172.281 9.22414 172.516 9.83907 172.516 10.7175V12.3574V12.3281ZM170.753 11.7717C170.371 11.7717 170.018 11.7717 169.666 11.8303C169.313 11.8889 169.019 11.9767 168.726 12.0938C168.432 12.211 168.226 12.3574 168.05 12.5624C167.874 12.7673 167.815 13.0016 167.815 13.2944C167.815 13.5872 167.874 13.6751 167.962 13.8508C168.05 13.9972 168.167 14.1436 168.314 14.2315C168.461 14.3193 168.637 14.4072 168.814 14.4657C168.99 14.5243 169.166 14.5536 169.372 14.5536C169.842 14.5536 170.224 14.495 170.518 14.3486C170.812 14.2022 171.076 14.0265 171.252 13.8215C171.429 13.5872 171.546 13.353 171.634 13.0894C171.693 12.8259 171.722 12.5331 171.722 12.2402V11.801H170.753V11.7717Z" fill="white"/>
<path d="M178.186 9.1947H176.247V13.5871C176.247 13.8799 176.335 14.1142 176.482 14.2899C176.658 14.4656 176.893 14.5241 177.158 14.5241C177.422 14.5241 177.481 14.5241 177.657 14.4656C177.833 14.407 177.98 14.3777 178.156 14.2899L178.215 15.0805C178.039 15.1391 177.863 15.1976 177.657 15.2562C177.451 15.3148 177.246 15.3148 177.069 15.3148C176.746 15.3148 176.482 15.2562 176.276 15.1683C176.041 15.0805 175.865 14.9634 175.747 14.7877C175.6 14.6413 175.512 14.4363 175.454 14.2313C175.395 14.0263 175.365 13.7921 175.365 13.5578V9.16542H173.896V8.37479H175.365V6.44214H176.247V8.37479H178.186V9.16542V9.1947Z" fill="white"/>
<path d="M185.736 13.9094C185.384 14.4365 184.972 14.7878 184.473 15.0221C183.974 15.2564 183.415 15.3442 182.798 15.3442C182.181 15.3442 181.799 15.2564 181.388 15.0807C180.977 14.905 180.595 14.6707 180.301 14.3486C180.007 14.0265 179.772 13.6458 179.596 13.2359C179.449 12.7966 179.361 12.3281 179.361 11.801C179.361 11.2739 179.449 10.8347 179.625 10.3955C179.802 9.95622 180.037 9.60483 180.331 9.28272C180.624 8.96061 180.977 8.72635 181.388 8.55065C181.799 8.37496 182.24 8.28711 182.74 8.28711C183.239 8.28711 183.709 8.37496 184.12 8.55065C184.502 8.72635 184.855 8.96061 185.119 9.25343C185.384 9.54626 185.589 9.89765 185.736 10.2783C185.883 10.659 185.942 11.0397 185.942 11.4203V12.0353H180.242C180.242 12.211 180.272 12.4452 180.36 12.7381C180.419 13.0309 180.566 13.2944 180.771 13.5873C180.977 13.8508 181.241 14.0851 181.564 14.29C181.888 14.495 182.328 14.5829 182.828 14.5829C183.327 14.5829 183.709 14.4657 184.12 14.2608C184.532 14.0558 184.855 13.763 185.09 13.3823L185.736 13.9094ZM185.061 11.2154C185.061 10.9225 185.002 10.6297 184.884 10.3662C184.767 10.1026 184.591 9.86837 184.385 9.66339C184.179 9.45841 183.915 9.312 183.65 9.19487C183.357 9.07774 183.063 9.01917 182.74 9.01917C182.27 9.01917 181.858 9.10702 181.535 9.312C181.212 9.51698 180.977 9.72196 180.771 9.9855C180.595 10.249 180.448 10.4833 180.389 10.7176C180.301 10.9518 180.272 11.1275 180.272 11.2154H185.09H185.061Z" fill="white"/>
<path d="M191.994 4.80249H198.223V5.68097H192.964V9.37057H197.841V10.2491H192.964V15.1685H191.994V4.80249Z" fill="white"/>
<path d="M205.156 12.3281C205.156 12.6502 205.156 12.943 205.156 13.2066C205.156 13.4701 205.156 13.7044 205.156 13.9386C205.156 14.1729 205.156 14.3779 205.185 14.5536C205.185 14.7585 205.215 14.9342 205.244 15.1392H204.422C204.363 14.8171 204.333 14.4364 204.333 14.0558H204.304C204.04 14.495 203.746 14.8171 203.364 15.0221C202.982 15.2271 202.512 15.3149 201.924 15.3149C201.337 15.3149 201.337 15.2856 201.072 15.1978C200.779 15.1392 200.544 15.0221 200.308 14.8464C200.073 14.6707 199.897 14.4657 199.75 14.2315C199.603 13.9679 199.545 13.6751 199.545 13.3237C199.545 12.7966 199.692 12.3867 199.927 12.0938C200.191 11.801 200.514 11.5667 200.896 11.4203C201.278 11.2739 201.689 11.1568 202.13 11.1275C202.571 11.0982 202.953 11.0689 203.276 11.0689H204.304V10.659C204.304 10.0733 204.128 9.66338 203.775 9.39983C203.423 9.13629 202.953 9.01916 202.424 9.01916C201.631 9.01916 200.955 9.2827 200.367 9.78051L199.868 9.19485C200.191 8.87275 200.602 8.63849 201.072 8.49207C201.542 8.31638 202.012 8.25781 202.453 8.25781C203.276 8.25781 203.922 8.46279 204.422 8.84346C204.921 9.22414 205.156 9.83907 205.156 10.7175V12.3574V12.3281ZM203.393 11.7717C203.011 11.7717 202.659 11.7717 202.306 11.8303C201.954 11.8889 201.66 11.9767 201.366 12.0938C201.072 12.211 200.867 12.3574 200.69 12.5624C200.514 12.7673 200.455 13.0016 200.455 13.2944C200.455 13.5872 200.514 13.6751 200.602 13.8508C200.69 13.9972 200.808 14.1436 200.955 14.2315C201.102 14.3193 201.278 14.4072 201.454 14.4657C201.631 14.5243 201.807 14.5536 202.012 14.5536C202.483 14.5536 202.864 14.495 203.158 14.3486C203.452 14.2022 203.716 14.0265 203.893 13.8215C204.069 13.5872 204.187 13.353 204.275 13.0894C204.333 12.8259 204.363 12.5331 204.363 12.2402V11.801H203.393V11.7717Z" fill="white"/>
<path d="M207.536 13.4408C207.712 13.7922 208.006 14.085 208.358 14.2607C208.711 14.4364 209.093 14.5536 209.504 14.5536C209.915 14.5536 209.886 14.5243 210.062 14.4657C210.239 14.4071 210.415 14.3193 210.562 14.2022C210.709 14.085 210.826 13.9679 210.914 13.8215C211.003 13.6751 211.061 13.4994 211.061 13.2944C211.061 12.9723 210.973 12.738 210.768 12.5916C210.562 12.4452 210.327 12.3281 210.033 12.2402C209.739 12.1524 209.416 12.0645 209.063 12.006C208.711 11.9474 208.388 11.8596 208.094 11.7131C207.8 11.596 207.565 11.391 207.359 11.1568C207.154 10.9225 207.066 10.6004 207.066 10.1612C207.066 9.72193 207.124 9.54623 207.271 9.31197C207.418 9.07771 207.595 8.87273 207.8 8.69704C208.006 8.52134 208.27 8.40421 208.535 8.34565C208.799 8.2578 209.093 8.22852 209.357 8.22852C209.915 8.22852 210.386 8.34565 210.797 8.52134C211.208 8.72632 211.531 9.04843 211.737 9.48767L210.944 9.95619C210.768 9.63408 210.562 9.39982 210.327 9.25341C210.092 9.10699 209.739 9.01914 209.357 9.01914C208.975 9.01914 209.034 9.01915 208.858 9.07771C208.682 9.13628 208.535 9.19484 208.388 9.28269C208.241 9.37054 208.123 9.48767 208.035 9.6048C207.947 9.75121 207.888 9.89762 207.888 10.0733C207.888 10.3661 207.976 10.6004 208.182 10.7468C208.388 10.8932 208.623 11.0104 208.917 11.0982C209.21 11.1861 209.534 11.2446 209.886 11.3032C210.239 11.3618 210.562 11.4496 210.856 11.596C211.149 11.7131 211.384 11.9181 211.59 12.1524C211.796 12.4159 211.884 12.7673 211.884 13.2066C211.884 13.6458 211.825 13.8508 211.678 14.1143C211.531 14.3779 211.355 14.5828 211.12 14.7585C210.885 14.9342 210.621 15.0514 210.327 15.1392C210.033 15.2271 209.739 15.2856 209.416 15.2856C208.828 15.2856 208.3 15.1685 207.8 14.9635C207.33 14.7292 206.948 14.4071 206.684 13.9386L207.448 13.4115L207.536 13.4408Z" fill="white"/>
<path d="M213.764 4.09961H214.646V9.57545C214.822 9.19478 215.116 8.87267 215.527 8.60913C215.938 8.34558 216.408 8.19917 216.967 8.19917C217.525 8.19917 217.936 8.28702 218.259 8.46271C218.582 8.63841 218.847 8.84339 219.053 9.10693C219.229 9.37047 219.376 9.69258 219.434 10.044C219.493 10.3954 219.552 10.7468 219.552 11.1274V15.1391H218.671V11.1567C218.671 10.8932 218.671 10.6296 218.612 10.3661C218.553 10.1025 218.465 9.86828 218.347 9.6633C218.23 9.45832 218.054 9.28262 217.848 9.16549C217.642 9.04836 217.349 8.9898 216.996 8.9898C216.643 8.9898 216.379 9.04836 216.085 9.16549C215.791 9.28262 215.556 9.45832 215.351 9.69258C215.145 9.92684 214.969 10.2197 214.851 10.5418C214.734 10.8932 214.675 11.3031 214.675 11.7716V15.1391H213.794V4.09961H213.764Z" fill="white"/>
<path d="M221.873 5.73943C221.873 5.56374 221.932 5.38804 222.079 5.27091C222.196 5.15378 222.372 5.09521 222.549 5.09521C222.725 5.09521 222.901 5.15378 223.019 5.27091C223.136 5.38804 223.195 5.56374 223.195 5.73943C223.195 5.91513 223.136 6.09082 223.019 6.20795C222.901 6.32508 222.725 6.38365 222.549 6.38365C222.372 6.38365 222.196 6.32508 222.079 6.20795C221.961 6.09082 221.873 5.91513 221.873 5.73943ZM222.079 8.40415H222.96V15.1684H222.079V8.40415Z" fill="white"/>
<path d="M225.075 11.801C225.075 11.2739 225.163 10.8054 225.34 10.3662C225.516 9.92692 225.751 9.54625 226.074 9.25342C226.397 8.93131 226.75 8.69705 227.191 8.52136C227.631 8.34566 228.101 8.25781 228.63 8.25781C229.159 8.25781 229.629 8.34566 230.07 8.52136C230.51 8.69705 230.892 8.93131 231.186 9.25342C231.509 9.57553 231.744 9.9562 231.921 10.3662C232.097 10.8054 232.185 11.2739 232.185 11.801C232.185 12.3281 232.097 12.7966 231.921 13.2359C231.744 13.6751 231.509 14.0558 231.186 14.3486C230.863 14.6707 230.481 14.905 230.07 15.0807C229.629 15.2563 229.159 15.3442 228.63 15.3442C228.101 15.3442 227.631 15.2563 227.191 15.0807C226.75 14.905 226.368 14.6707 226.074 14.3486C225.751 14.0265 225.516 13.6458 225.34 13.2359C225.163 12.7966 225.075 12.3281 225.075 11.801ZM225.957 11.801C225.957 12.1817 226.015 12.5331 226.133 12.8845C226.25 13.2066 226.427 13.4994 226.662 13.7629C226.897 13.9972 227.191 14.2022 227.514 14.3486C227.837 14.495 228.219 14.5828 228.63 14.5828C229.041 14.5828 229.423 14.5243 229.747 14.3486C230.07 14.2022 230.364 13.9972 230.599 13.7629C230.834 13.4994 231.01 13.2359 231.127 12.8845C231.245 12.5624 231.304 12.1817 231.304 11.801C231.304 11.4203 231.245 11.0689 231.127 10.7175C231.01 10.3954 230.834 10.1026 230.599 9.83907C230.364 9.60481 230.07 9.39983 229.747 9.25342C229.423 9.10701 229.041 9.01916 228.63 9.01916C228.219 9.01916 227.837 9.07772 227.514 9.25342C227.191 9.39983 226.897 9.60481 226.662 9.83907C226.427 10.1026 226.25 10.3662 226.133 10.7175C226.015 11.0397 225.957 11.4203 225.957 11.801Z" fill="white"/>
<path d="M234.183 10.3076C234.183 10.1904 234.183 10.0147 234.183 9.83903C234.183 9.66333 234.183 9.48764 234.183 9.28266C234.183 9.10696 234.183 8.93127 234.183 8.75557C234.183 8.57988 234.183 8.46275 234.183 8.3749H235.064C235.064 8.63844 235.064 8.8727 235.064 9.10696C235.064 9.34123 235.064 9.48764 235.094 9.5462H235.152C235.329 9.16553 235.622 8.84342 236.034 8.57988C236.445 8.31633 236.915 8.16992 237.473 8.16992C238.032 8.16992 238.443 8.25777 238.766 8.43346C239.089 8.60916 239.354 8.81414 239.559 9.07768C239.736 9.34123 239.882 9.66333 239.941 10.0147C240 10.3661 240.059 10.7175 240.059 11.0982V15.1099H239.177V11.1275C239.177 10.8639 239.177 10.6004 239.119 10.3368C239.06 10.0733 238.972 9.83903 238.854 9.63405C238.737 9.42907 238.56 9.25338 238.355 9.13625C238.149 9.01912 237.855 8.96055 237.503 8.96055C237.15 8.96055 236.886 9.01912 236.592 9.13625C236.298 9.25338 236.063 9.42907 235.857 9.66333C235.652 9.89759 235.476 10.1904 235.358 10.5125C235.241 10.8639 235.182 11.2739 235.182 11.7424V15.1099H234.3V10.249L234.183 10.3076Z" fill="white"/>
<path d="M37.5468 17.511H31.7003C27.4403 17.511 26.0007 14.7584 26.0007 11.2738C26.0007 7.78916 26.1183 5.88579 26.5589 2.48901H30.3783C29.9376 5.85651 29.82 8.40409 29.82 11.2738C29.82 14.1435 31.8766 14.1142 32.6405 14.1142H33.7275V2.48901H37.5468V17.4817V17.511Z" fill="white"/>
<path d="M0 17.511H6.78663C10.6059 17.511 11.4873 15.3441 11.4873 13.4114C11.4873 11.4788 10.1653 10.1903 9.13698 9.54613C9.93022 9.01904 10.9585 7.75989 10.9585 6.20792C10.9585 4.65594 9.54829 2.51831 6.37532 2.51831H0V17.511ZM5.67022 14.1142H3.81932V5.85652H5.22953C6.34594 5.85652 7.02167 6.2372 7.02167 7.26209C7.02167 8.28698 5.49394 9.04833 3.99559 9.78039C5.49394 10.3953 7.5505 11.0688 7.5505 12.4158C7.5505 13.7628 6.84539 14.1142 5.67022 14.1142Z" fill="white"/>
<path d="M78.1491 5.88579H72.3026V8.34553H77.5909L76.9739 11.5373H72.3026V14.1435H78.5604L77.9434 17.511H68.4833V2.48901H77.5321L78.1491 5.85651V5.88579Z" fill="white"/>
<path d="M43.8928 9.45827V17.511H40.0735V2.48901H43.8928C43.8928 2.48901 46.0081 5.56368 47.9471 9.45827V2.48901H51.7664V17.4817H47.9471C47.9471 17.4817 46.3313 13.6457 43.8928 9.42899V9.45827Z" fill="white"/>
<path d="M58.1124 9.45827V17.511H54.2931V2.48901H58.1124C58.1124 2.48901 60.2277 5.56368 62.1667 9.45827V2.48901H65.986V17.4817H62.1667C62.1667 17.4817 60.5509 13.6457 58.1124 9.42899V9.45827Z" fill="white"/>
<path d="M17.2457 10.161C18.6265 13.2064 20.4186 16.1933 22.1814 18.858L25.1781 16.7203C23.9736 14.9927 22.8865 13.3528 21.8876 11.4495C23.1803 10.5124 24.5318 9.22401 24.5318 7.0571C24.5318 4.89018 23.0922 2.48901 19.9486 2.48901H13.2795V17.4817H17.0988V5.88579H18.7146C19.8604 5.88579 20.5949 6.32503 20.5949 7.40849C20.5949 8.49194 18.8028 9.42898 17.2751 10.161H17.2457Z" fill="white"/>
<path d="M84.2894 10.161C85.6702 13.2064 87.4624 16.1933 89.2251 18.858L92.2218 16.7203C91.0173 14.9927 89.9302 13.3528 88.9313 11.4495C90.224 10.5124 91.5755 9.22401 91.5755 7.0571C91.5755 4.89018 90.1359 2.48901 86.9923 2.48901H80.3232V17.4817H84.1425V5.88579H85.7583C86.9041 5.88579 87.6386 6.32503 87.6386 7.40849C87.6386 8.49194 85.8465 9.42898 84.3188 10.161H84.2894Z" fill="white"/>
<path d="M105.413 0H106.03V20H105.413V0Z" fill="#BDBDBD" fill-opacity="0.5"/>
</g>
<defs>
<clipPath id="clip0_36_127">
<rect width="240" height="20" fill="white"/>
</clipPath>
</defs>
</svg>
