<?xml version="1.0" encoding="utf-8"?>
<!-- Generator: Adobe Illustrator 16.0.0, SVG Export Plug-In . SVG Version: 6.00 Build 0)  -->
<!DOCTYPE svg PUBLIC "-//W3C//DTD SVG 1.1//EN" "http://www.w3.org/Graphics/SVG/1.1/DTD/svg11.dtd">
<svg version="1.1" id="Ebene_1" xmlns="http://www.w3.org/2000/svg" xmlns:xlink="http://www.w3.org/1999/xlink" x="0px" y="0px"
	 width="278.675px" height="28px" viewBox="0 0 278.675 28" enable-background="new 0 0 278.675 28" xml:space="preserve">
<g>
	<g>
		<path fill="#009FE3" d="M52.388,24.5h-8.156c-5.936,0-7.937-3.858-7.937-8.715c0-4.042,0.175-7.554,0.785-12.283h5.324
			c-0.598,4.729-0.782,8.266-0.782,12.286c0,3.984,2.881,3.984,3.924,3.984h1.526V3.501h5.314V24.5z"/>
		<path fill="#009FE3" d="M0,24.5h9.478c5.325,0,6.574-3.026,6.574-5.752c0-3.342-1.844-4.524-3.27-5.403
			c1.102-0.753,2.527-2.492,2.527-4.68c0-2.947-1.952-5.163-6.394-5.163H0V24.5z M7.91,19.771H5.314V8.23h1.987
			c1.544,0,2.483,0.531,2.483,1.963c0,1.742-2.114,2.5-4.22,3.51c2.101,0.872,4.961,1.808,4.961,3.682
			C10.525,18.954,9.543,19.771,7.91,19.771z"/>
		<path fill="#009FE3" d="M109.007,8.23h-8.17v3.426h7.364l-0.852,4.473h-6.512v3.643h8.716l-0.854,4.728H95.522V3.501h12.631
			L109.007,8.23z"/>
		<path fill="#009FE3" d="M61.226,13.243V24.5h-5.314V3.501h5.314c0,0,2.968,4.322,5.663,9.741V3.501h5.314V24.5h-5.314
			C66.889,24.5,64.654,19.133,61.226,13.243z"/>
		<path fill="#009FE3" d="M81.043,13.243V24.5h-5.315V3.501h5.315c0,0,2.966,4.322,5.662,9.741V3.501h5.315V24.5h-5.315
			C86.705,24.5,84.468,19.133,81.043,13.243z"/>
		<path fill="#009FE3" d="M24.062,14.206c1.929,4.274,4.408,8.463,6.865,12.191l4.181-2.993c-1.692-2.412-3.206-4.731-4.587-7.385
			c1.806-1.307,3.688-3.102,3.688-6.137c0-3.354-2.012-6.382-6.398-6.382h-9.31v21h5.315V8.23h2.257c1.612,0,2.609,0.628,2.609,2.14
			C28.682,12.319,26.183,13.196,24.062,14.206z"/>
		<path fill="#009FE3" d="M117.564,14.206c1.93,4.274,4.408,8.463,6.866,12.191l4.181-2.993c-1.692-2.412-3.208-4.731-4.588-7.385
			c1.806-1.307,3.688-3.102,3.688-6.137c0-3.354-2.011-6.382-6.399-6.382h-9.309v21h5.314V8.23h2.258
			c1.613,0,2.609,0.628,2.609,2.14C122.186,12.319,119.684,13.196,117.564,14.206z"/>
	</g>
	<g>
		<path d="M166.845,6.743h1.394l3.607,12.853h0.042l3.669-12.853h1.722l3.669,12.853h0.041l3.608-12.853h1.394l-4.223,14.513h-1.66
			l-3.669-12.914h-0.041l-3.669,12.914h-1.661L166.845,6.743z"/>
		<path d="M195.487,19.473c-0.963,1.435-2.418,2.029-4.1,2.029c-2.89,0-4.797-2.07-4.797-5.001c0-2.829,1.968-4.961,4.736-4.961
			c2.911,0,4.448,2.234,4.448,4.428v0.861h-7.954c0,1.025,0.718,3.566,3.588,3.566c1.25,0,2.562-0.656,3.177-1.681L195.487,19.473z
			 M194.544,15.722c0-1.681-1.455-3.075-3.28-3.075c-2.685,0-3.444,2.583-3.444,3.075H194.544z"/>
		<path d="M198.543,14.451c0-0.697-0.102-2.173-0.102-2.665h1.23c0.02,0.697,0.041,1.476,0.082,1.66
			c0.615-1.107,1.599-1.906,3.013-1.906c0.246,0,0.472,0.041,0.717,0.103l-0.144,1.209c-0.184-0.062-0.348-0.082-0.471-0.082
			c-2.132,0-3.096,1.476-3.096,3.321v5.166h-1.23V14.451z"/>
		<path d="M205.446,5.76h1.23v7.687h0.041c0.759-1.312,2.378-1.906,3.793-1.906c2.91,0,4.98,2.091,4.98,4.981
			c0,2.891-2.07,4.981-4.98,4.981c-1.415,0-3.034-0.594-3.793-1.906h-0.041v1.661h-1.23V5.76z M210.509,20.396
			c2.316,0,3.751-1.743,3.751-3.875s-1.435-3.874-3.751-3.874c-2.235,0-3.957,1.742-3.957,3.874S208.274,20.396,210.509,20.396z"/>
		<path d="M226.638,19.473c-0.963,1.435-2.419,2.029-4.1,2.029c-2.89,0-4.796-2.07-4.796-5.001c0-2.829,1.967-4.961,4.735-4.961
			c2.911,0,4.448,2.234,4.448,4.428v0.861h-7.954c0,1.025,0.718,3.566,3.587,3.566c1.25,0,2.562-0.656,3.177-1.681L226.638,19.473z
			 M225.695,15.722c0-1.681-1.455-3.075-3.28-3.075c-2.685,0-3.444,2.583-3.444,3.075H225.695z"/>
		<path d="M239.156,20.641c0,4.715-3.117,5.535-5.043,5.535c-1.906,0-3.73-0.738-4.694-1.989l0.963-0.901
			c0.861,1.209,2.255,1.783,3.73,1.783c3.751,0,3.813-3.279,3.813-4.345v-1.312h-0.041c-0.718,1.127-1.968,1.845-3.588,1.845
			c-2.788,0-5.062-2.194-5.062-4.858c0-2.665,2.274-4.858,5.062-4.858c1.62,0,2.87,0.717,3.588,1.845h0.041v-1.599h1.23V20.641z
			 M234.214,12.647c-2.069,0-3.75,1.681-3.75,3.751c0,2.071,1.681,3.751,3.75,3.751c2.071,0,3.752-1.681,3.752-3.751
			C237.966,14.328,236.286,12.647,234.214,12.647z"/>
		<path d="M242.322,14.451c0-0.697-0.102-2.173-0.102-2.665h1.23c0.02,0.697,0.041,1.476,0.082,1.66
			c0.615-1.107,1.599-1.906,3.013-1.906c0.246,0,0.473,0.041,0.718,0.103l-0.143,1.209c-0.184-0.062-0.349-0.082-0.472-0.082
			c-2.131,0-3.095,1.476-3.095,3.321v5.166h-1.23V14.451z"/>
		<path d="M256.261,17.28c0,1.845,0.041,2.89,0.185,3.977h-1.147c-0.082-0.472-0.123-1.004-0.123-1.538h-0.042
			c-0.696,1.21-1.722,1.783-3.32,1.783c-1.62,0-3.342-0.799-3.342-2.808c0-2.89,3.383-3.177,5.248-3.177h1.435v-0.574
			c0-1.64-1.147-2.296-2.665-2.296c-1.107,0-2.05,0.348-2.89,1.066l-0.718-0.841c0.902-0.861,2.378-1.332,3.608-1.332
			c2.296,0,3.771,1.025,3.771,3.423V17.28z M253.801,16.501c-2.05,0-4.099,0.512-4.099,2.132c0,1.167,1.127,1.763,2.152,1.763
			c2.624,0,3.3-1.681,3.3-3.26v-0.635H253.801z"/>
		<path d="M260.167,12.893h-1.968v-1.107h1.968V8.69c0-2.439,1.62-3.177,2.829-3.177c0.594,0,1.045,0.082,1.415,0.246l-0.246,1.065
			c-0.287-0.144-0.636-0.205-1.106-0.205c-1.128,0-1.661,0.82-1.661,2.521v2.645h2.214v1.107h-2.214v8.363h-1.23V12.893z"/>
		<path d="M266.418,7.113c0.512,0,0.922,0.41,0.922,0.922c0,0.513-0.41,0.923-0.922,0.923s-0.923-0.41-0.923-0.923
			C265.495,7.522,265.906,7.113,266.418,7.113z M265.803,11.786h1.229v9.47h-1.229V11.786z"/>
		<path d="M270.394,5.76h1.23v10.331l4.674-4.285h1.804l-4.879,4.326l5.453,5.125h-1.865l-5.187-5.001v5.001h-1.23V5.76z"/>
	</g>
	<g>
		<path fill="#B6B6B6" d="M147.062,0h0.875v28h-0.875V0z"/>
	</g>
</g>
</svg>
