<svg width="240" height="20" viewBox="0 0 240 20" fill="none" xmlns="http://www.w3.org/2000/svg">
<g clip-path="url(#clip0_5_30)">
<path d="M129.504 13.5578C129.005 14.2313 128.417 14.6999 127.771 14.9927C127.124 15.2855 126.419 15.4319 125.656 15.4319C124.892 15.4319 124.128 15.2855 123.481 15.022C122.835 14.7584 122.248 14.3777 121.777 13.9092C121.307 13.4407 120.955 12.855 120.69 12.1815C120.426 11.508 120.279 10.776 120.279 9.98536C120.279 9.19473 120.426 8.46266 120.69 7.81845C120.955 7.14495 121.307 6.58858 121.777 6.09077C122.248 5.62225 122.806 5.24158 123.481 4.94875C124.128 4.68521 124.862 4.5388 125.656 4.5388C126.449 4.5388 127.007 4.65593 127.624 4.91947C128.241 5.15373 128.77 5.59297 129.24 6.17862L128.447 6.82284C128.123 6.32503 127.712 5.97364 127.213 5.76867C126.713 5.53441 126.184 5.44656 125.656 5.44656C125.127 5.44656 124.363 5.56369 123.834 5.79795C123.305 6.03221 122.835 6.35432 122.453 6.76427C122.071 7.17423 121.777 7.64275 121.572 8.19912C121.366 8.75549 121.278 9.34114 121.278 9.98536C121.278 10.6296 121.366 11.2152 121.572 11.7716C121.777 12.328 122.071 12.7965 122.453 13.2064C122.835 13.6164 123.305 13.9385 123.834 14.1728C124.392 14.407 124.98 14.5242 125.656 14.5242C126.331 14.5242 126.184 14.4949 126.478 14.4363C126.772 14.3777 127.036 14.2606 127.301 14.1435C127.565 13.9971 127.83 13.8507 128.065 13.6457C128.3 13.4407 128.535 13.2064 128.711 12.9136L129.504 13.4993V13.5578Z" fill="black"/>
<path d="M130.65 11.8009C130.65 11.2738 130.738 10.8053 130.914 10.366C131.091 9.92679 131.326 9.54612 131.649 9.25329C131.972 8.93119 132.325 8.69693 132.765 8.52123C133.206 8.34553 133.676 8.25769 134.205 8.25769C134.734 8.25769 135.204 8.34553 135.645 8.52123C136.085 8.69693 136.467 8.93119 136.761 9.25329C137.084 9.5754 137.319 9.95608 137.495 10.366C137.672 10.8053 137.76 11.2738 137.76 11.8009C137.76 12.328 137.672 12.7965 137.495 13.2357C137.319 13.675 137.084 14.0556 136.761 14.3485C136.438 14.6413 136.056 14.9048 135.645 15.0805C135.204 15.2562 134.734 15.3441 134.205 15.3441C133.676 15.3441 133.206 15.2562 132.765 15.0805C132.325 14.9048 131.943 14.6706 131.649 14.3485C131.326 14.0264 131.091 13.6457 130.914 13.2357C130.738 12.7965 130.65 12.328 130.65 11.8009ZM131.531 11.8009C131.531 12.1816 131.59 12.5329 131.708 12.8843C131.825 13.2064 132.001 13.4993 132.236 13.7628C132.472 13.9971 132.765 14.202 133.088 14.3485C133.412 14.4949 133.794 14.5827 134.205 14.5827C134.616 14.5827 134.998 14.5242 135.321 14.3485C135.644 14.202 135.938 13.9971 136.173 13.7628C136.408 13.4993 136.585 13.2357 136.702 12.8843C136.82 12.5622 136.878 12.1816 136.878 11.8009C136.878 11.4202 136.82 11.0688 136.702 10.7174C136.585 10.3953 136.408 10.1025 136.173 9.83895C135.938 9.60468 135.644 9.39971 135.321 9.25329C134.998 9.10688 134.616 9.01903 134.205 9.01903C133.794 9.01903 133.412 9.0776 133.088 9.25329C132.765 9.39971 132.472 9.60468 132.236 9.83895C132.001 10.1025 131.825 10.366 131.708 10.7174C131.59 11.0395 131.531 11.4202 131.531 11.8009Z" fill="black"/>
<path d="M139.758 10.3075C139.758 10.1903 139.758 10.0146 139.758 9.83894C139.758 9.66325 139.758 9.48755 139.758 9.28258C139.758 9.10688 139.758 8.93118 139.758 8.75549C139.758 8.57979 139.758 8.46266 139.758 8.37482H140.639C140.639 8.63836 140.639 8.87262 140.639 9.10688C140.639 9.34114 140.639 9.48755 140.668 9.54612C140.903 9.13616 141.168 8.81405 141.52 8.57979C141.873 8.31625 142.314 8.19912 142.813 8.19912C143.312 8.19912 142.989 8.19912 143.077 8.19912C143.166 8.19912 143.254 8.2284 143.342 8.25768L143.254 9.10688C143.136 9.0776 143.019 9.04831 142.901 9.04831C142.519 9.04831 142.196 9.10688 141.902 9.22401C141.638 9.34114 141.403 9.51684 141.227 9.72181C141.05 9.92679 140.903 10.1903 140.815 10.4832C140.727 10.776 140.668 11.0688 140.668 11.4202V15.1098H139.787V10.2489L139.758 10.3075Z" fill="black"/>
<path d="M144.458 8.4041H145.34V9.5754H145.369C145.516 9.34114 145.663 9.13616 145.869 8.96047C146.074 8.78477 146.309 8.63836 146.544 8.55051C146.779 8.43338 147.044 8.34553 147.308 8.28697C147.573 8.2284 147.837 8.19912 148.072 8.19912C148.601 8.19912 149.071 8.28697 149.512 8.46266C149.952 8.63836 150.334 8.87262 150.628 9.19473C150.951 9.51684 151.186 9.89751 151.362 10.3075C151.539 10.7467 151.627 11.2152 151.627 11.7423C151.627 12.2694 151.539 12.7379 151.362 13.1772C151.186 13.6164 150.951 13.9971 150.628 14.2899C150.305 14.612 149.923 14.8463 149.512 15.022C149.071 15.1977 148.601 15.2855 148.072 15.2855C147.543 15.2855 147.573 15.2855 147.308 15.1977C147.044 15.1391 146.779 15.0512 146.544 14.9634C146.309 14.8463 146.074 14.6999 145.869 14.5534C145.663 14.3777 145.487 14.1728 145.369 13.9385H145.34V18.448H144.458V8.4041ZM145.252 11.8009C145.252 12.1815 145.31 12.5329 145.457 12.8843C145.604 13.2357 145.81 13.4993 146.045 13.7628C146.309 13.9971 146.603 14.202 146.926 14.3485C147.249 14.4949 147.631 14.5827 148.043 14.5827C148.454 14.5827 148.836 14.5242 149.159 14.3485C149.482 14.202 149.776 13.9971 150.011 13.7628C150.246 13.4993 150.422 13.2357 150.54 12.8843C150.657 12.5622 150.716 12.1815 150.716 11.8009C150.716 11.4202 150.657 11.0688 150.54 10.7174C150.422 10.3953 150.246 10.1025 150.011 9.83894C149.776 9.60468 149.482 9.39971 149.159 9.25329C148.836 9.10688 148.454 9.01903 148.043 9.01903C147.631 9.01903 147.279 9.0776 146.926 9.25329C146.574 9.39971 146.28 9.60468 146.045 9.83894C145.78 10.1025 145.604 10.366 145.457 10.7174C145.31 11.0688 145.252 11.4202 145.252 11.8009Z" fill="black"/>
<path d="M153.243 11.8009C153.243 11.2738 153.331 10.8053 153.507 10.366C153.683 9.92679 153.918 9.54612 154.242 9.25329C154.565 8.93119 154.917 8.69693 155.358 8.52123C155.799 8.34553 156.269 8.25769 156.798 8.25769C157.326 8.25769 157.797 8.34553 158.237 8.52123C158.678 8.69693 159.06 8.93119 159.354 9.25329C159.677 9.5754 159.912 9.95608 160.088 10.366C160.264 10.8053 160.353 11.2738 160.353 11.8009C160.353 12.328 160.264 12.7965 160.088 13.2357C159.912 13.675 159.677 14.0556 159.354 14.3485C159.03 14.6706 158.649 14.9048 158.237 15.0805C157.797 15.2562 157.326 15.3441 156.798 15.3441C156.269 15.3441 155.799 15.2562 155.358 15.0805C154.917 14.9048 154.535 14.6706 154.242 14.3485C153.918 14.0264 153.683 13.6457 153.507 13.2357C153.331 12.7965 153.243 12.328 153.243 11.8009ZM154.124 11.8009C154.124 12.1816 154.183 12.5329 154.3 12.8843C154.418 13.2064 154.594 13.4993 154.829 13.7628C155.064 13.9971 155.358 14.202 155.681 14.3485C156.004 14.4949 156.386 14.5827 156.798 14.5827C157.209 14.5827 157.591 14.5242 157.914 14.3485C158.237 14.202 158.531 13.9971 158.766 13.7628C159.001 13.4993 159.177 13.2357 159.295 12.8843C159.412 12.5622 159.471 12.1816 159.471 11.8009C159.471 11.4202 159.412 11.0688 159.295 10.7174C159.177 10.3953 159.001 10.1025 158.766 9.83895C158.531 9.60468 158.237 9.39971 157.914 9.25329C157.591 9.10688 157.209 9.01903 156.798 9.01903C156.386 9.01903 156.004 9.0776 155.681 9.25329C155.358 9.39971 155.064 9.60468 154.829 9.83895C154.594 10.1025 154.418 10.366 154.3 10.7174C154.183 11.0395 154.124 11.4202 154.124 11.8009Z" fill="black"/>
<path d="M162.35 10.3075C162.35 10.1903 162.35 10.0146 162.35 9.83894C162.35 9.66325 162.35 9.48755 162.35 9.28258C162.35 9.10688 162.35 8.93118 162.35 8.75549C162.35 8.57979 162.35 8.46266 162.35 8.37482H163.232C163.232 8.63836 163.232 8.87262 163.232 9.10688C163.232 9.34114 163.232 9.48755 163.261 9.54612C163.496 9.13616 163.761 8.81405 164.142 8.57979C164.495 8.31625 164.936 8.19912 165.435 8.19912C165.935 8.19912 165.611 8.19912 165.7 8.19912C165.788 8.19912 165.876 8.2284 165.964 8.25768L165.876 9.10688C165.758 9.0776 165.641 9.04831 165.523 9.04831C165.141 9.04831 164.818 9.10688 164.524 9.22401C164.231 9.34114 164.025 9.51684 163.849 9.72181C163.672 9.92679 163.526 10.1903 163.437 10.4832C163.349 10.776 163.32 11.0688 163.32 11.4202V15.1098H162.438V10.2489L162.35 10.3075Z" fill="black"/>
<path d="M172.516 12.328C172.516 12.6501 172.516 12.9429 172.516 13.2064C172.516 13.47 172.516 13.7042 172.516 13.9385C172.516 14.1728 172.516 14.3777 172.545 14.5534C172.545 14.7584 172.574 14.9341 172.604 15.1391H171.781C171.722 14.817 171.693 14.4363 171.693 14.0556H171.664C171.399 14.4949 171.105 14.817 170.723 15.022C170.341 15.2269 169.871 15.3148 169.284 15.3148C168.696 15.3148 168.696 15.2855 168.432 15.1977C168.138 15.1391 167.903 15.022 167.668 14.8463C167.433 14.6706 167.257 14.4656 167.11 14.2313C166.963 13.9678 166.904 13.675 166.904 13.3236C166.904 12.7965 167.051 12.3865 167.286 12.0937C167.55 11.8009 167.874 11.5666 168.256 11.4202C168.638 11.2738 169.049 11.1567 169.49 11.1274C169.93 11.0981 170.312 11.0688 170.635 11.0688H171.664V10.6589C171.664 10.0732 171.487 9.66325 171.135 9.39971C170.782 9.13616 170.312 9.01903 169.783 9.01903C168.99 9.01903 168.314 9.28258 167.727 9.78038L167.227 9.19473C167.55 8.87262 167.962 8.63836 168.432 8.49195C168.902 8.31625 169.372 8.25769 169.813 8.25769C170.635 8.25769 171.282 8.46266 171.781 8.84334C172.281 9.22401 172.516 9.83895 172.516 10.7174V12.3572V12.328ZM170.753 11.7716C170.371 11.7716 170.018 11.7716 169.666 11.8302C169.313 11.8887 169.019 11.9766 168.726 12.0937C168.432 12.2108 168.226 12.3572 168.05 12.5622C167.874 12.7672 167.815 13.0015 167.815 13.2943C167.815 13.5871 167.874 13.675 167.962 13.8507C168.05 13.9971 168.167 14.1435 168.314 14.2313C168.461 14.3192 168.637 14.407 168.814 14.4656C168.99 14.5242 169.166 14.5534 169.372 14.5534C169.842 14.5534 170.224 14.4949 170.518 14.3485C170.812 14.202 171.076 14.0264 171.252 13.8214C171.429 13.5871 171.546 13.3529 171.634 13.0893C171.693 12.8258 171.722 12.5329 171.722 12.2401V11.8009H170.753V11.7716Z" fill="black"/>
<path d="M178.186 9.19473H176.247V13.5871C176.247 13.8799 176.335 14.1142 176.482 14.2899C176.658 14.4656 176.893 14.5242 177.158 14.5242C177.422 14.5242 177.481 14.5242 177.657 14.4656C177.833 14.407 177.98 14.3777 178.156 14.2899L178.215 15.0805C178.039 15.1391 177.863 15.1977 177.657 15.2562C177.451 15.3148 177.246 15.3148 177.069 15.3148C176.746 15.3148 176.482 15.2562 176.276 15.1684C176.041 15.0805 175.865 14.9634 175.747 14.7877C175.6 14.6413 175.512 14.4363 175.454 14.2313C175.395 14.0264 175.365 13.7921 175.365 13.5578V9.16544H173.896V8.37482H175.365V6.44217H176.247V8.37482H178.186V9.16544V9.19473Z" fill="black"/>
<path d="M185.736 13.9092C185.384 14.4363 184.972 14.7877 184.473 15.022C183.974 15.2562 183.415 15.3441 182.798 15.3441C182.181 15.3441 181.799 15.2562 181.388 15.0805C180.977 14.9048 180.595 14.6706 180.301 14.3485C180.007 14.0264 179.772 13.6457 179.596 13.2357C179.449 12.7965 179.361 12.328 179.361 11.8009C179.361 11.2738 179.449 10.8346 179.625 10.3953C179.802 9.95608 180.037 9.60468 180.331 9.28258C180.624 8.96047 180.977 8.72621 181.388 8.55051C181.799 8.37482 182.24 8.28697 182.74 8.28697C183.239 8.28697 183.709 8.37482 184.12 8.55051C184.502 8.72621 184.855 8.96047 185.119 9.25329C185.384 9.54612 185.589 9.89751 185.736 10.2782C185.883 10.6589 185.942 11.0395 185.942 11.4202V12.0351H180.242C180.242 12.2108 180.272 12.4451 180.36 12.7379C180.419 13.0307 180.566 13.2943 180.771 13.5871C180.977 13.8507 181.241 14.0849 181.564 14.2899C181.888 14.4949 182.328 14.5827 182.828 14.5827C183.327 14.5827 183.709 14.4656 184.12 14.2606C184.532 14.0556 184.855 13.7628 185.09 13.3821L185.736 13.9092ZM185.061 11.2152C185.061 10.9224 185.002 10.6296 184.884 10.366C184.767 10.1025 184.591 9.86823 184.385 9.66325C184.179 9.45827 183.915 9.31186 183.65 9.19473C183.357 9.0776 183.063 9.01903 182.74 9.01903C182.27 9.01903 181.858 9.10688 181.535 9.31186C181.212 9.51684 180.977 9.72181 180.771 9.98536C180.595 10.2489 180.448 10.4832 180.389 10.7174C180.301 10.9517 180.272 11.1274 180.272 11.2152H185.09H185.061Z" fill="black"/>
<path d="M191.994 4.80234H198.223V5.68082H192.964V9.37042H197.841V10.2489H192.964V15.1684H191.994V4.80234Z" fill="black"/>
<path d="M205.156 12.328C205.156 12.6501 205.156 12.9429 205.156 13.2064C205.156 13.47 205.156 13.7042 205.156 13.9385C205.156 14.1728 205.156 14.3777 205.185 14.5534C205.185 14.7584 205.215 14.9341 205.244 15.1391H204.422C204.363 14.817 204.333 14.4363 204.333 14.0556H204.304C204.04 14.4949 203.746 14.817 203.364 15.022C202.982 15.2269 202.512 15.3148 201.924 15.3148C201.337 15.3148 201.337 15.2855 201.072 15.1977C200.779 15.1391 200.544 15.022 200.308 14.8463C200.073 14.6706 199.897 14.4656 199.75 14.2313C199.603 13.9678 199.545 13.675 199.545 13.3236C199.545 12.7965 199.692 12.3865 199.927 12.0937C200.191 11.8009 200.514 11.5666 200.896 11.4202C201.278 11.2738 201.689 11.1567 202.13 11.1274C202.571 11.0981 202.953 11.0688 203.276 11.0688H204.304V10.6589C204.304 10.0732 204.128 9.66325 203.775 9.39971C203.423 9.13616 202.953 9.01903 202.424 9.01903C201.631 9.01903 200.955 9.28258 200.367 9.78038L199.868 9.19473C200.191 8.87262 200.602 8.63836 201.072 8.49195C201.542 8.31625 202.012 8.25769 202.453 8.25769C203.276 8.25769 203.922 8.46266 204.422 8.84334C204.921 9.22401 205.156 9.83895 205.156 10.7174V12.3572V12.328ZM203.393 11.7716C203.011 11.7716 202.659 11.7716 202.306 11.8302C201.954 11.8887 201.66 11.9766 201.366 12.0937C201.072 12.2108 200.867 12.3572 200.69 12.5622C200.514 12.7672 200.455 13.0015 200.455 13.2943C200.455 13.5871 200.514 13.675 200.602 13.8507C200.69 13.9971 200.808 14.1435 200.955 14.2313C201.102 14.3192 201.278 14.407 201.454 14.4656C201.631 14.5242 201.807 14.5534 202.012 14.5534C202.483 14.5534 202.864 14.4949 203.158 14.3485C203.452 14.202 203.716 14.0264 203.893 13.8214C204.069 13.5871 204.187 13.3529 204.275 13.0893C204.333 12.8258 204.363 12.5329 204.363 12.2401V11.8009H203.393V11.7716Z" fill="black"/>
<path d="M207.536 13.4407C207.712 13.7921 208.006 14.0849 208.358 14.2606C208.711 14.4363 209.093 14.5534 209.504 14.5534C209.915 14.5534 209.886 14.5242 210.062 14.4656C210.239 14.407 210.415 14.3192 210.562 14.2021C210.709 14.0849 210.826 13.9678 210.914 13.8214C211.003 13.675 211.061 13.4993 211.061 13.2943C211.061 12.9722 210.973 12.7379 210.768 12.5915C210.562 12.4451 210.327 12.328 210.033 12.2401C209.739 12.1523 209.416 12.0644 209.063 12.0059C208.711 11.9473 208.388 11.8594 208.094 11.713C207.8 11.5959 207.565 11.3909 207.359 11.1567C207.154 10.9224 207.066 10.6003 207.066 10.1611C207.066 9.72182 207.124 9.54612 207.271 9.31186C207.418 9.0776 207.595 8.87262 207.8 8.69693C208.006 8.52123 208.27 8.4041 208.535 8.34554C208.799 8.25769 209.093 8.2284 209.357 8.2284C209.915 8.2284 210.386 8.34554 210.797 8.52123C211.208 8.72621 211.531 9.04832 211.737 9.48756L210.944 9.95608C210.768 9.63397 210.562 9.39971 210.327 9.2533C210.092 9.10688 209.739 9.01903 209.357 9.01903C208.975 9.01903 209.034 9.01903 208.858 9.0776C208.682 9.13616 208.535 9.19473 208.388 9.28258C208.241 9.37043 208.123 9.48756 208.035 9.60469C207.947 9.7511 207.888 9.89751 207.888 10.0732C207.888 10.366 207.976 10.6003 208.182 10.7467C208.388 10.8931 208.623 11.0103 208.917 11.0981C209.21 11.1859 209.534 11.2445 209.886 11.3031C210.239 11.3616 210.562 11.4495 210.856 11.5959C211.149 11.713 211.384 11.918 211.59 12.1523C211.796 12.4158 211.884 12.7672 211.884 13.2064C211.884 13.6457 211.825 13.8507 211.678 14.1142C211.531 14.3777 211.355 14.5827 211.12 14.7584C210.885 14.9341 210.621 15.0512 210.327 15.1391C210.033 15.2269 209.739 15.2855 209.416 15.2855C208.828 15.2855 208.3 15.1684 207.8 14.9634C207.33 14.7291 206.948 14.407 206.684 13.9385L207.448 13.4114L207.536 13.4407Z" fill="black"/>
<path d="M213.764 4.09956H214.646V9.5754C214.822 9.19473 215.116 8.87262 215.527 8.60908C215.938 8.34553 216.408 8.19912 216.967 8.19912C217.525 8.19912 217.936 8.28697 218.259 8.46266C218.582 8.63836 218.847 8.84334 219.053 9.10688C219.229 9.37042 219.376 9.69253 219.434 10.0439C219.493 10.3953 219.552 10.7467 219.552 11.1274V15.1391H218.671V11.1567C218.671 10.8931 218.671 10.6296 218.612 10.366C218.553 10.1025 218.465 9.86823 218.347 9.66325C218.23 9.45827 218.054 9.28258 217.848 9.16544C217.642 9.04831 217.349 8.98975 216.996 8.98975C216.643 8.98975 216.379 9.04831 216.085 9.16544C215.791 9.28258 215.556 9.45827 215.351 9.69253C215.145 9.92679 214.969 10.2196 214.851 10.5417C214.734 10.8931 214.675 11.3031 214.675 11.7716V15.1391H213.794V4.09956H213.764Z" fill="black"/>
<path d="M221.873 5.73938C221.873 5.56369 221.932 5.38799 222.079 5.27086C222.196 5.15373 222.372 5.09517 222.549 5.09517C222.725 5.09517 222.901 5.15373 223.019 5.27086C223.136 5.38799 223.195 5.56369 223.195 5.73938C223.195 5.91508 223.136 6.09078 223.019 6.20791C222.901 6.32504 222.725 6.3836 222.549 6.3836C222.372 6.3836 222.196 6.32504 222.079 6.20791C221.961 6.09078 221.873 5.91508 221.873 5.73938ZM222.079 8.4041H222.96V15.1684H222.079V8.4041Z" fill="black"/>
<path d="M225.075 11.8009C225.075 11.2738 225.163 10.8053 225.34 10.366C225.516 9.92679 225.751 9.54612 226.074 9.25329C226.397 8.93119 226.75 8.69693 227.191 8.52123C227.631 8.34553 228.101 8.25769 228.63 8.25769C229.159 8.25769 229.629 8.34553 230.07 8.52123C230.51 8.69693 230.892 8.93119 231.186 9.25329C231.509 9.5754 231.744 9.95608 231.921 10.366C232.097 10.8053 232.185 11.2738 232.185 11.8009C232.185 12.328 232.097 12.7965 231.921 13.2357C231.744 13.675 231.509 14.0556 231.186 14.3485C230.863 14.6706 230.481 14.9048 230.07 15.0805C229.629 15.2562 229.159 15.3441 228.63 15.3441C228.101 15.3441 227.631 15.2562 227.191 15.0805C226.75 14.9048 226.368 14.6706 226.074 14.3485C225.751 14.0264 225.516 13.6457 225.34 13.2357C225.163 12.7965 225.075 12.328 225.075 11.8009ZM225.957 11.8009C225.957 12.1816 226.015 12.5329 226.133 12.8843C226.25 13.2064 226.427 13.4993 226.662 13.7628C226.897 13.9971 227.191 14.202 227.514 14.3485C227.837 14.4949 228.219 14.5827 228.63 14.5827C229.041 14.5827 229.423 14.5242 229.747 14.3485C230.07 14.202 230.364 13.9971 230.599 13.7628C230.834 13.4993 231.01 13.2357 231.127 12.8843C231.245 12.5622 231.304 12.1816 231.304 11.8009C231.304 11.4202 231.245 11.0688 231.127 10.7174C231.01 10.3953 230.834 10.1025 230.599 9.83895C230.364 9.60468 230.07 9.39971 229.747 9.25329C229.423 9.10688 229.041 9.01903 228.63 9.01903C228.219 9.01903 227.837 9.0776 227.514 9.25329C227.191 9.39971 226.897 9.60468 226.662 9.83895C226.427 10.1025 226.25 10.366 226.133 10.7174C226.015 11.0395 225.957 11.4202 225.957 11.8009Z" fill="black"/>
<path d="M234.183 10.3075C234.183 10.1903 234.183 10.0146 234.183 9.83894C234.183 9.66325 234.183 9.48755 234.183 9.28258C234.183 9.10688 234.183 8.93118 234.183 8.75549C234.183 8.57979 234.183 8.46266 234.183 8.37482H235.064C235.064 8.63836 235.064 8.87262 235.064 9.10688C235.064 9.34114 235.064 9.48755 235.094 9.54612H235.152C235.329 9.16545 235.622 8.84334 236.034 8.57979C236.445 8.31625 236.915 8.16984 237.473 8.16984C238.032 8.16984 238.443 8.25769 238.766 8.43338C239.089 8.60908 239.354 8.81405 239.559 9.0776C239.736 9.34114 239.882 9.66325 239.941 10.0146C240 10.366 240.059 10.7174 240.059 11.0981V15.1098H239.177V11.1274C239.177 10.8638 239.177 10.6003 239.119 10.3367C239.06 10.0732 238.972 9.83895 238.854 9.63397C238.737 9.42899 238.56 9.25329 238.355 9.13616C238.149 9.01903 237.855 8.96047 237.503 8.96047C237.15 8.96047 236.886 9.01903 236.592 9.13616C236.298 9.25329 236.063 9.42899 235.857 9.66325C235.652 9.89751 235.476 10.1903 235.358 10.5124C235.241 10.8638 235.182 11.2738 235.182 11.7423V15.1098H234.3V10.2489L234.183 10.3075Z" fill="black"/>
<path d="M37.5468 17.511H31.7003C27.4403 17.511 26.0007 14.7584 26.0007 11.2738C26.0007 7.78917 26.1183 5.8858 26.5589 2.48902H30.3783C29.9376 5.85652 29.82 8.4041 29.82 11.2738C29.82 14.1435 31.8766 14.1142 32.6405 14.1142H33.7275V2.48902H37.5468V17.4817V17.511Z" fill="#009FE3"/>
<path d="M0 17.511H6.78663C10.6059 17.511 11.4873 15.3441 11.4873 13.4114C11.4873 11.4788 10.1653 10.1903 9.13698 9.54612C9.93022 9.01903 10.9585 7.75988 10.9585 6.20791C10.9585 4.65593 9.54829 2.5183 6.37532 2.5183H0V17.511ZM5.67022 14.1142H3.81932V5.85652H5.22953C6.34594 5.85652 7.02167 6.23719 7.02167 7.26208C7.02167 8.28697 5.49394 9.04832 3.99559 9.78038C5.49394 10.3953 7.5505 11.0688 7.5505 12.4158C7.5505 13.7628 6.84539 14.1142 5.67022 14.1142Z" fill="#009FE3"/>
<path d="M78.1491 5.8858H72.3026V8.34554H77.5909L76.9739 11.5373H72.3026V14.1435H78.5604L77.9434 17.511H68.4833V2.48902H77.5321L78.1491 5.85652V5.8858Z" fill="#009FE3"/>
<path d="M43.8928 9.45827V17.511H40.0735V2.48902H43.8928C43.8928 2.48902 46.0081 5.56369 47.9471 9.45827V2.48902H51.7664V17.4817H47.9471C47.9471 17.4817 46.3313 13.6457 43.8928 9.42899V9.45827Z" fill="#009FE3"/>
<path d="M58.1124 9.45827V17.511H54.2931V2.48902H58.1124C58.1124 2.48902 60.2277 5.56369 62.1667 9.45827V2.48902H65.986V17.4817H62.1667C62.1667 17.4817 60.5509 13.6457 58.1124 9.42899V9.45827Z" fill="#009FE3"/>
<path d="M17.2457 10.1611C18.6265 13.2064 20.4186 16.1933 22.1814 18.858L25.1781 16.7203C23.9735 14.9927 22.8865 13.3529 21.8876 11.4495C23.1803 10.5124 24.5318 9.22401 24.5318 7.0571C24.5318 4.89019 23.0922 2.48902 19.9486 2.48902H13.2795V17.4817H17.0988V5.8858H18.7146C19.8604 5.8858 20.5949 6.32504 20.5949 7.40849C20.5949 8.49195 18.8028 9.42899 17.2751 10.1611H17.2457Z" fill="#009FE3"/>
<path d="M84.2894 10.1611C85.6702 13.2064 87.4624 16.1933 89.2251 18.858L92.2218 16.7203C91.0173 14.9927 89.9302 13.3529 88.9313 11.4495C90.224 10.5124 91.5755 9.22401 91.5755 7.0571C91.5755 4.89019 90.1359 2.48902 86.9923 2.48902H80.3232V17.4817H84.1425V5.8858H85.7583C86.9041 5.8858 87.6386 6.32504 87.6386 7.40849C87.6386 8.49195 85.8465 9.42899 84.3188 10.1611H84.2894Z" fill="#009FE3"/>
<path d="M105.413 0H106.03V20H105.413V0Z" fill="#BDBDBD"/>
</g>
<defs>
<clipPath id="clip0_5_30">
<rect width="240" height="20" fill="white"/>
</clipPath>
</defs>
</svg>
